<svg width="14" height="14" viewBox="0 0 14 14" fill="none" xmlns="http://www.w3.org/2000/svg">
<path d="M7.5202 6.99998L13.8923 0.627906C14.0359 0.484274 14.0359 0.251402 13.8923 0.10777C13.7486 -0.035862 13.5158 -0.035862 13.3721 0.10777L7.00002 6.4798L0.627941 0.107724C0.484309 -0.035908 0.251436 -0.035908 0.107804 0.107724C-0.0358735 0.251356 -0.0358735 0.484229 0.107804 0.62786L6.47983 6.99998L0.107758 13.3721C-0.0359195 13.5157 -0.0359195 13.7486 0.107758 13.8922C0.179574 13.9641 0.273689 14 0.36785 14C0.46201 14 0.556125 13.9641 0.627941 13.8922L7.00002 7.52017L13.3721 13.8922C13.444 13.9641 13.538 14 13.6322 14C13.7263 14 13.8205 13.9641 13.8923 13.8922C14.0359 13.7486 14.0359 13.5157 13.8923 13.3721L7.5202 6.99998Z" fill="#999999"/>
</svg>
