<svg width="70" height="70" viewBox="0 0 70 70" fill="none" xmlns="http://www.w3.org/2000/svg">
<path fill-rule="evenodd" clip-rule="evenodd" d="M46.6549 12.0886C46.0282 12.1801 45.0688 12.4402 45.0689 12.5185C45.0689 12.549 45.4766 12.9177 45.9749 13.3379C48.5248 15.4879 50.4723 18.5899 51.3069 21.8308C51.5167 22.6457 51.8388 24.4819 51.7818 24.5388C51.7691 24.5515 51.5082 24.1846 51.2021 23.7232C49.9155 21.7835 47.9205 19.4709 46.2152 17.9424C44.4662 16.3748 42.2209 14.7114 41.9791 14.8042C41.7417 14.8952 40.6924 16.3125 40.2886 17.0874C39.5861 18.4355 39.3163 19.5154 39.3183 20.9708C39.3204 22.4625 39.7904 24.1738 40.5505 25.4568C41.4238 26.9308 42.4797 27.8557 45.1953 29.5253C47.9055 31.1917 48.8481 31.9328 49.8441 33.18C51.0897 34.7396 51.7428 36.2716 52.2025 38.7117L52.403 39.7758L52.9652 39.0491C54.2722 37.3594 55.7171 34.791 56.5302 32.7115C58.5896 27.4444 58.4855 22.5523 56.2143 17.8763C55.4615 16.3266 54.7116 15.2614 53.696 14.2993C51.7864 12.4904 49.2836 11.7046 46.6549 12.0886ZM38.014 40.6014C36.6584 40.9614 36.0444 41.2516 33.6104 42.6819C30.2644 44.6483 28.7672 45.126 26.2411 45.0334C24.7341 44.9781 24.008 44.8436 22.5397 44.3475L21.5342 44.0079L21.6758 44.3776C21.9831 45.1806 22.9584 47.1332 23.4989 48.0275C25.9632 52.105 29.1139 55.0545 32.6843 56.6263C35.7475 57.9747 39.7163 58.3665 42.4529 57.5907C44.7582 56.9371 46.6439 55.4101 47.7118 53.3322C48.0831 52.6098 48.4791 51.5004 48.606 50.8264C48.6554 50.5644 48.6423 50.533 48.5059 50.5869C48.0405 50.771 45.7571 51.2902 44.6644 51.4604C42.8675 51.7403 39.378 51.7434 37.6096 51.4667C36.1333 51.2356 34.6439 50.9 34.6439 50.7983C34.6439 50.7572 34.8575 50.7235 35.1184 50.7235C35.7651 50.7235 37.6313 50.4911 38.7779 50.2676C40.8413 49.8656 43.1288 49.1857 44.9138 48.444C45.6022 48.158 48.0119 46.9914 48.118 46.8928C48.1392 46.8731 48.0838 46.625 47.9951 46.3413C47.2714 44.0295 45.6892 42.172 43.6182 41.2029C42.4139 40.6393 41.6273 40.4634 40.126 40.4224C38.9677 40.3905 38.7329 40.4105 38.014 40.6014Z" fill="#126FB4"/>
<path d="M17.3441 18.1945C20.1589 15.9067 23.825 14.5751 27.9775 14.3323C29.177 14.2622 29.7508 14.2689 31.4985 14.3734C32.7064 14.4457 35.1838 14.8364 35.3242 14.9767C35.3468 14.9994 34.9887 15.3045 34.5287 15.655C33.5637 16.3898 32.3556 17.6116 31.7422 18.4728C31.1431 19.314 30.452 20.8103 30.1956 21.8211C29.9294 22.8701 29.7399 24.2535 29.6094 26.0993C29.3384 29.934 28.7461 31.6442 27.0678 33.4382C24.8665 35.7916 21.8501 36.6397 18.7029 35.7906L17.9947 35.5995L18.0514 34.9887C18.132 34.1219 18.5194 32.2689 18.885 31.0011C19.6506 28.3469 21.123 25.2678 22.6149 23.201C22.8557 22.8673 23.0138 22.5944 22.9663 22.5944C22.9187 22.5944 22.2791 23.191 21.5448 23.92C18.9474 26.4991 17.0655 29.0974 15.4581 32.3231C15.0948 33.0524 14.7761 33.6995 14.7501 33.761C14.6774 33.9325 13.7917 32.9248 13.2995 32.1107C11.9158 29.8218 11.6459 27.2005 12.5298 24.6343C12.8199 23.792 13.6647 22.2521 14.3143 21.3816C15.0364 20.4141 16.4744 18.9013 17.3441 18.1945Z" fill="#D8E1EF"/>
</svg>
