<svg width="46" height="47" viewBox="0 0 46 47" fill="none" xmlns="http://www.w3.org/2000/svg">
<path fill-rule="evenodd" clip-rule="evenodd" d="M34.6549 1.08861C34.0282 1.1801 33.0688 1.44018 33.0689 1.51846C33.0689 1.54901 33.4766 1.91774 33.9749 2.33788C36.5248 4.48792 38.4723 7.58994 39.3069 10.8308C39.5167 11.6457 39.8388 13.4819 39.7818 13.5388C39.7691 13.5515 39.5082 13.1846 39.2021 12.7232C37.9155 10.7835 35.9205 8.47093 34.2152 6.94243C32.4662 5.37475 30.2209 3.71136 29.9791 3.80419C29.7417 3.89523 28.6924 5.31247 28.2886 6.08741C27.5861 7.43545 27.3163 8.51542 27.3183 9.97085C27.3204 11.4625 27.7904 13.1738 28.5505 14.4568C29.4238 15.9308 30.4797 16.8557 33.1953 18.5253C35.9055 20.1917 36.8481 20.9328 37.8441 22.18C39.0897 23.7396 39.7428 25.2716 40.2025 27.7117L40.403 28.7758L40.9652 28.0491C42.2722 26.3594 43.7171 23.791 44.5302 21.7115C46.5896 16.4444 46.4855 11.5523 44.2143 6.87629C43.4615 5.32658 42.7116 4.26136 41.696 3.29931C39.7864 1.49042 37.2836 0.704598 34.6549 1.08861ZM26.014 29.6014C24.6584 29.9614 24.0444 30.2516 21.6104 31.6819C18.2644 33.6483 16.7672 34.126 14.2411 34.0334C12.7341 33.9781 12.008 33.8436 10.5397 33.3475L9.53424 33.0079L9.67578 33.3776C9.98314 34.1806 10.9584 36.1332 11.4989 37.0275C13.9632 41.105 17.1139 44.0545 20.6843 45.6263C23.7475 46.9747 27.7163 47.3665 30.4529 46.5907C32.7582 45.9371 34.6439 44.4101 35.7118 42.3322C36.0831 41.6098 36.4791 40.5004 36.606 39.8264C36.6554 39.5644 36.6423 39.533 36.5059 39.5869C36.0405 39.771 33.7571 40.2902 32.6644 40.4604C30.8675 40.7403 27.378 40.7434 25.6096 40.4667C24.1333 40.2356 22.6439 39.9 22.6439 39.7983C22.6439 39.7572 22.8575 39.7235 23.1184 39.7235C23.7651 39.7235 25.6313 39.4911 26.7779 39.2676C28.8413 38.8656 31.1288 38.1857 32.9138 37.444C33.6022 37.158 36.0119 35.9914 36.118 35.8928C36.1392 35.8731 36.0838 35.625 35.9951 35.3413C35.2714 33.0295 33.6892 31.172 31.6182 30.2029C30.4139 29.6393 29.6273 29.4634 28.126 29.4224C26.9677 29.3905 26.7329 29.4105 26.014 29.6014Z" fill="#126FB4"/>
<path d="M5.34406 7.1945C8.15886 4.90669 11.825 3.5751 15.9775 3.33227C17.177 3.26217 17.7508 3.26891 19.4985 3.37343C20.7064 3.44569 23.1838 3.83644 23.3242 3.97673C23.3468 3.99937 22.9887 4.30448 22.5287 4.65497C21.5637 5.38983 20.3556 6.61161 19.7422 7.47282C19.1431 8.314 18.452 9.81033 18.1956 10.8211C17.9294 11.8701 17.7399 13.2535 17.6094 15.0993C17.3384 18.934 16.7461 20.6442 15.0678 22.4382C12.8665 24.7916 9.85011 25.6397 6.70288 24.7906L5.99471 24.5995L6.05142 23.9887C6.13203 23.1219 6.51937 21.2689 6.88505 20.0011C7.65056 17.3469 9.12298 14.2678 10.6149 12.201C10.8557 11.8673 11.0138 11.5944 10.9663 11.5944C10.9187 11.5944 10.2791 12.191 9.54482 12.92C6.94742 15.4991 5.06546 18.0974 3.45815 21.3231C3.09481 22.0524 2.77613 22.6995 2.75007 22.761C2.67736 22.9325 1.7917 21.9248 1.29949 21.1107C-0.0842322 18.8218 -0.35411 16.2005 0.529755 13.6343C0.819854 12.792 1.66472 11.2521 2.31429 10.3816C3.03639 9.41409 4.47439 7.90132 5.34406 7.1945Z" fill="#D8E1EF"/>
</svg>
