<svg width="30" height="30" viewBox="0 0 30 30" fill="none" xmlns="http://www.w3.org/2000/svg">
<path d="M17.138 24.097C17.0482 24.1006 16.9906 24.1077 16.9331 24.1077C15.7039 24.1077 14.4783 24.1042 13.2491 24.1113C13.0765 24.1113 13.0298 24.0646 13.0298 23.8921C13.0334 21.0311 13.0334 18.1665 13.0334 15.3055C13.0334 15.23 13.0334 15.1545 13.0334 15.0575C12.3649 15.0575 11.7143 15.0575 11.053 15.0575C11.053 14.0367 11.053 13.0339 11.053 12.0024C11.1213 12.0024 11.186 12.0024 11.2471 12.0024C11.7862 12.0024 12.3253 11.9988 12.8645 12.006C13.0011 12.006 13.037 11.9664 13.037 11.8334C13.0298 11.0319 13.0298 10.2268 13.037 9.42531C13.0406 8.86461 13.1304 8.31829 13.3892 7.8115C13.7594 7.09625 14.3453 6.63259 15.0857 6.34506C15.6895 6.10784 16.3257 6.02157 16.9655 6.01079C18.0078 5.99641 19.0501 6.0036 20.0925 6.00001C20.1895 6.00001 20.2686 5.99641 20.2686 6.133C20.265 7.12141 20.265 8.10982 20.265 9.09824C20.265 9.10902 20.2614 9.1198 20.247 9.16653C20.1859 9.16653 20.1176 9.16653 20.0493 9.16653C19.4024 9.16653 18.7554 9.16293 18.1085 9.16653C17.7347 9.16653 17.4327 9.31748 17.2422 9.64456C17.1847 9.7416 17.1488 9.8674 17.1488 9.98242C17.138 10.5934 17.1488 11.2045 17.1416 11.8155C17.1416 11.9592 17.1847 11.9988 17.3249 11.9988C18.2235 11.9916 19.122 11.9952 20.0206 11.9952C20.0925 11.9952 20.1608 11.9952 20.283 11.9952C20.1572 13.0231 20.035 14.0295 19.9092 15.0467C18.9747 15.0467 18.0653 15.0467 17.138 15.0467C17.138 18.0694 17.138 21.0742 17.138 24.097Z" fill="#126FB4"/>
</svg>
