<svg width="70" height="70" viewBox="0 0 70 70" fill="none" xmlns="http://www.w3.org/2000/svg">
<path d="M57.2857 29.8571H51.3371C51.0404 28.8981 50.6559 27.9685 50.1886 27.08L54.3886 22.88C54.5492 22.7206 54.6768 22.531 54.7638 22.3221C54.8508 22.1132 54.8957 21.8892 54.8957 21.6629C54.8957 21.4366 54.8508 21.2125 54.7638 21.0036C54.6768 20.7947 54.5492 20.6051 54.3886 20.4457L49.5543 15.6114C49.3949 15.4508 49.2053 15.3232 48.9964 15.2362C48.7875 15.1492 48.5634 15.1043 48.3371 15.1043C48.1108 15.1043 47.8868 15.1492 47.6779 15.2362C47.469 15.3232 47.2794 15.4508 47.12 15.6114L42.92 19.8114C42.0315 19.3441 41.1019 18.9596 40.1429 18.6629V12.7143C40.1429 12.2596 39.9622 11.8236 39.6408 11.5021C39.3193 11.1806 38.8832 11 38.4286 11H31.5714C31.1168 11 30.6807 11.1806 30.3592 11.5021C30.0378 11.8236 29.8571 12.2596 29.8571 12.7143V18.6629C28.8981 18.9596 27.9685 19.3441 27.08 19.8114L22.88 15.6114C22.7206 15.4508 22.531 15.3232 22.3221 15.2362C22.1132 15.1492 21.8892 15.1043 21.6629 15.1043C21.4366 15.1043 21.2125 15.1492 21.0036 15.2362C20.7947 15.3232 20.6051 15.4508 20.4457 15.6114L15.6114 20.4457C15.4508 20.6051 15.3232 20.7947 15.2362 21.0036C15.1492 21.2125 15.1043 21.4366 15.1043 21.6629C15.1043 21.8892 15.1492 22.1132 15.2362 22.3221C15.3232 22.531 15.4508 22.7206 15.6114 22.88L19.8114 27.08C19.6057 27.4743 19.4171 27.8857 19.2286 28.2971C19.0119 28.8065 18.8231 29.3273 18.6629 29.8571H12.7143C12.2596 29.8571 11.8236 30.0378 11.5021 30.3592C11.1806 30.6807 11 31.1168 11 31.5714V38.4286C11 38.8832 11.1806 39.3193 11.5021 39.6408C11.8236 39.9622 12.2596 40.1429 12.7143 40.1429H18.6629C18.9596 41.1019 19.3441 42.0315 19.8114 42.92L15.6114 47.12C15.4508 47.2794 15.3232 47.469 15.2362 47.6779C15.1492 47.8868 15.1043 48.1108 15.1043 48.3371C15.1043 48.5634 15.1492 48.7875 15.2362 48.9964C15.3232 49.2053 15.4508 49.3949 15.6114 49.5543L20.4457 54.3886C20.6051 54.5492 20.7947 54.6768 21.0036 54.7638C21.2125 54.8508 21.4366 54.8957 21.6629 54.8957C21.8892 54.8957 22.1132 54.8508 22.3221 54.7638C22.531 54.6768 22.7206 54.5492 22.88 54.3886L27.08 50.1886C27.9685 50.6559 28.8981 51.0404 29.8571 51.3371V57.2857C29.8571 57.7404 30.0378 58.1764 30.3592 58.4979C30.6807 58.8194 31.1168 59 31.5714 59H38.4286C38.8832 59 39.3193 58.8194 39.6408 58.4979C39.9622 58.1764 40.1429 57.7404 40.1429 57.2857V51.3371C41.1019 51.0404 42.0315 50.6559 42.92 50.1886L47.12 54.3886C47.2794 54.5492 47.469 54.6768 47.6779 54.7638C47.8868 54.8508 48.1108 54.8957 48.3371 54.8957C48.5634 54.8957 48.7875 54.8508 48.9964 54.7638C49.2053 54.6768 49.3949 54.5492 49.5543 54.3886L54.3886 49.5543C54.5492 49.3949 54.6768 49.2053 54.7638 48.9964C54.8508 48.7875 54.8957 48.5634 54.8957 48.3371C54.8957 48.1108 54.8508 47.8868 54.7638 47.6779C54.6768 47.469 54.5492 47.2794 54.3886 47.12L50.1886 42.92C50.6559 42.0315 51.0404 41.1019 51.3371 40.1429H57.2857C57.7404 40.1429 58.1764 39.9622 58.4979 39.6408C58.8194 39.3193 59 38.8832 59 38.4286V31.5714C59 31.1168 58.8194 30.6807 58.4979 30.3592C58.1764 30.0378 57.7404 29.8571 57.2857 29.8571Z" fill="#D8E1EF"/>
<path d="M35 43.5713C39.7339 43.5713 43.5714 39.7338 43.5714 34.9999C43.5714 30.266 39.7339 26.4285 35 26.4285C30.2661 26.4285 26.4286 30.266 26.4286 34.9999C26.4286 39.7338 30.2661 43.5713 35 43.5713Z" fill="#126FB4"/>
</svg>
