<svg width="48" height="48" viewBox="0 0 48 48" fill="none" xmlns="http://www.w3.org/2000/svg">
<path d="M46.2857 18.8571H40.3371C40.0404 17.8981 39.6559 16.9685 39.1886 16.08L43.3886 11.88C43.5492 11.7206 43.6768 11.531 43.7638 11.3221C43.8508 11.1132 43.8957 10.8892 43.8957 10.6629C43.8957 10.4366 43.8508 10.2125 43.7638 10.0036C43.6768 9.79468 43.5492 9.60508 43.3886 9.44571L38.5543 4.61143C38.3949 4.45075 38.2053 4.32322 37.9964 4.23619C37.7875 4.14915 37.5635 4.10435 37.3371 4.10435C37.1108 4.10435 36.8868 4.14915 36.6779 4.23619C36.469 4.32322 36.2794 4.45075 36.12 4.61143L31.92 8.81143C31.0315 8.34406 30.1019 7.95958 29.1429 7.66286V1.71429C29.1429 1.25963 28.9622 0.823594 28.6408 0.502103C28.3193 0.180612 27.8832 0 27.4286 0H20.5714C20.1168 0 19.6807 0.180612 19.3592 0.502103C19.0378 0.823594 18.8571 1.25963 18.8571 1.71429V7.66286C17.8981 7.95958 16.9685 8.34406 16.08 8.81143L11.88 4.61143C11.7206 4.45075 11.531 4.32322 11.3221 4.23619C11.1132 4.14915 10.8892 4.10435 10.6629 4.10435C10.4366 4.10435 10.2125 4.14915 10.0036 4.23619C9.79468 4.32322 9.60508 4.45075 9.44571 4.61143L4.61143 9.44571C4.45075 9.60508 4.32322 9.79468 4.23619 10.0036C4.14915 10.2125 4.10435 10.4366 4.10435 10.6629C4.10435 10.8892 4.14915 11.1132 4.23619 11.3221C4.32322 11.531 4.45075 11.7206 4.61143 11.88L8.81143 16.08C8.60571 16.4743 8.41714 16.8857 8.22857 17.2971C8.0119 17.8065 7.82305 18.3273 7.66286 18.8571H1.71429C1.25963 18.8571 0.823594 19.0378 0.502103 19.3592C0.180612 19.6807 0 20.1168 0 20.5714V27.4286C0 27.8832 0.180612 28.3193 0.502103 28.6408C0.823594 28.9622 1.25963 29.1429 1.71429 29.1429H7.66286C7.95958 30.1019 8.34406 31.0315 8.81143 31.92L4.61143 36.12C4.45075 36.2794 4.32322 36.469 4.23619 36.6779C4.14915 36.8868 4.10435 37.1108 4.10435 37.3371C4.10435 37.5635 4.14915 37.7875 4.23619 37.9964C4.32322 38.2053 4.45075 38.3949 4.61143 38.5543L9.44571 43.3886C9.60508 43.5492 9.79468 43.6768 10.0036 43.7638C10.2125 43.8508 10.4366 43.8957 10.6629 43.8957C10.8892 43.8957 11.1132 43.8508 11.3221 43.7638C11.531 43.6768 11.7206 43.5492 11.88 43.3886L16.08 39.1886C16.9685 39.6559 17.8981 40.0404 18.8571 40.3371V46.2857C18.8571 46.7404 19.0378 47.1764 19.3592 47.4979C19.6807 47.8194 20.1168 48 20.5714 48H27.4286C27.8832 48 28.3193 47.8194 28.6408 47.4979C28.9622 47.1764 29.1429 46.7404 29.1429 46.2857V40.3371C30.1019 40.0404 31.0315 39.6559 31.92 39.1886L36.12 43.3886C36.2794 43.5492 36.469 43.6768 36.6779 43.7638C36.8868 43.8508 37.1108 43.8957 37.3371 43.8957C37.5635 43.8957 37.7875 43.8508 37.9964 43.7638C38.2053 43.6768 38.3949 43.5492 38.5543 43.3886L43.3886 38.5543C43.5492 38.3949 43.6768 38.2053 43.7638 37.9964C43.8508 37.7875 43.8957 37.5635 43.8957 37.3371C43.8957 37.1108 43.8508 36.8868 43.7638 36.6779C43.6768 36.469 43.5492 36.2794 43.3886 36.12L39.1886 31.92C39.6559 31.0315 40.0404 30.1019 40.3371 29.1429H46.2857C46.7404 29.1429 47.1764 28.9622 47.4979 28.6408C47.8194 28.3193 48 27.8832 48 27.4286V20.5714C48 20.1168 47.8194 19.6807 47.4979 19.3592C47.1764 19.0378 46.7404 18.8571 46.2857 18.8571Z" fill="#D8E1EF"/>
<path d="M24 32.5713C28.7339 32.5713 32.5714 28.7338 32.5714 23.9999C32.5714 19.266 28.7339 15.4285 24 15.4285C19.2661 15.4285 15.4286 19.266 15.4286 23.9999C15.4286 28.7338 19.2661 32.5713 24 32.5713Z" fill="#126FB4"/>
</svg>
