<svg width="40" height="40" viewBox="0 0 40 40" fill="none" xmlns="http://www.w3.org/2000/svg">
<path fill-rule="evenodd" clip-rule="evenodd" d="M6.06904 23.4113C4.70979 23.7768 3.83172 25.1188 4.04597 26.5032C4.19097 27.4398 4.72091 28.1844 5.53754 28.5989L6.01966 28.8436L17.5053 28.8749L28.9909 28.9061L29.1673 29.0371C29.4221 29.2264 29.5094 29.4263 29.4775 29.7479C29.4563 29.9615 29.404 30.068 29.2552 30.201L29.0605 30.3749L18.0458 30.3754C11.3827 30.3756 6.82135 30.3996 6.49997 30.4361C5.19916 30.5838 4.2481 31.5035 4.04597 32.8091C3.82216 34.2553 4.81629 35.6708 6.24285 35.9371C6.46222 35.978 11.558 35.9999 20.8703 35.9999H35.161L35.4398 35.8593C35.7489 35.7035 36 35.3071 36 34.9751C36 34.6824 35.7669 34.2706 35.5112 34.1116L35.2812 33.9686L20.8542 33.9374L6.42722 33.9061L6.24485 33.702C5.89416 33.3096 6.06166 32.6379 6.5436 32.5041C6.70622 32.4589 10.3112 32.4378 17.9687 32.437C30.0953 32.4358 29.4519 32.4539 30.1108 32.0953C31.0763 31.5698 31.6685 30.3542 31.4975 29.2488C31.4137 28.7074 31.0758 28.0314 30.7055 27.6646C30.5404 27.501 30.1976 27.2645 29.9407 27.1371L29.4753 26.9061L18.0032 26.8749C8.84404 26.85 6.50297 26.8275 6.39122 26.7636C6.19772 26.6531 6.06247 26.3663 6.06247 26.0665C6.06247 25.8762 6.10722 25.7643 6.24485 25.6103L6.42722 25.4061L20.8542 25.3749L35.2812 25.3436L35.5112 25.2006C35.7669 25.0416 36 24.6299 36 24.3371C36 24.0293 35.7479 23.6105 35.4687 23.4543L35.2187 23.3145L20.8125 23.3175C8.4271 23.3202 6.35891 23.3333 6.06904 23.4113Z" fill="#D8E1EF"/>
<path d="M7.89093 5.68741C8.31137 5.03929 9.00475 4.31247 9.41418 4.09072C9.64875 3.96372 10.1419 4.00422 10.364 4.16879C10.6591 4.38729 10.8125 4.67622 10.8125 5.01329C10.8125 5.41254 10.7669 5.49004 10.1492 6.14129C9.00225 7.35035 8.63706 8.73241 9.09856 10.1175C9.372 10.9382 9.64325 11.332 11.0625 12.9687C11.7563 13.7688 12.41 14.8546 12.6993 15.6874C12.905 16.2795 13.0001 16.8603 12.9991 17.5196C12.9976 18.5248 12.7924 19.2352 12.2282 20.1874C11.8672 20.7968 10.9051 21.807 10.4115 22.0948C9.67487 22.5243 8.89275 22.154 8.82556 21.344C8.78931 20.9068 8.90425 20.7067 9.43425 20.2837C10.7745 19.2144 11.255 17.8147 10.7719 16.387C10.5022 15.5902 10.0517 14.9044 9.06862 13.7943C7.909 12.4848 7.328 11.5031 7.02375 10.3392C6.81068 9.5241 6.7995 8.41929 6.99656 7.65616C7.13656 7.11385 7.53612 6.23441 7.89093 5.68741Z" fill="#126FB4"/>
<path d="M15.3487 6.36835C15.8126 5.43916 16.7619 4.31197 17.2646 4.09354C17.5576 3.96616 17.8088 3.97985 18.1271 4.14054C18.6004 4.37941 18.8038 4.91441 18.6031 5.39254C18.5566 5.50316 18.3105 5.80885 18.0562 6.07185C16.9999 7.16416 16.5602 8.45329 16.8187 9.69997C16.9852 10.5031 17.5737 11.471 18.5591 12.5624C19.4289 13.5258 19.9612 14.3053 20.3416 15.1725C21.0836 16.8647 21.0247 18.5922 20.1761 20.0289C19.5551 21.0801 18.5371 22.0716 17.9037 22.2422C16.9116 22.5093 16.2164 21.232 16.9805 20.5458C18.0032 19.6276 18.3402 19.229 18.5782 18.6562C19.0029 17.6343 18.8679 16.6177 18.1443 15.3856C17.8393 14.8663 17.6197 14.5817 16.9062 13.7812C15.8749 12.6241 15.3354 11.7733 15.0092 10.7895C14.4901 9.22416 14.5932 7.88172 15.3487 6.36835Z" fill="#126FB4"/>
<path d="M23.6269 5.6221C23.9716 5.11447 24.7764 4.27241 25.0603 4.12229C25.6231 3.82466 26.3254 4.14854 26.4933 4.78316C26.6014 5.19197 26.4902 5.45235 25.9757 5.99422C25.4369 6.56166 25.1771 6.93022 24.9271 7.48166C24.4666 8.49729 24.4799 9.46241 24.9695 10.5388C25.2428 11.1396 25.5864 11.6322 26.2631 12.393C28.1536 14.5185 28.8532 16.1333 28.683 17.9781C28.5687 19.2165 28.0533 20.2488 27.0312 21.2862C26.297 22.0315 25.9213 22.274 25.5008 22.274C24.5434 22.274 24.1433 21.0454 24.9104 20.4608C26.2246 19.4592 26.8232 18.2915 26.6369 17.0928C26.4765 16.0608 25.9791 15.1749 24.8138 13.8452C24.4259 13.4025 23.9889 12.878 23.8429 12.6796C23.4619 12.162 22.9708 11.1742 22.7726 10.5266C22.618 10.0217 22.6014 9.87372 22.5977 8.96866C22.5946 8.1661 22.617 7.88847 22.7114 7.56241C22.8701 7.01479 23.3002 6.10322 23.6269 5.6221Z" fill="#126FB4"/>
</svg>
