<svg width="30" height="30" viewBox="0 0 30 30" fill="none" xmlns="http://www.w3.org/2000/svg">
<path d="M18.1867 6.66602H11.82C8.98001 6.66602 6.67334 8.97268 6.67334 11.8127V18.1793C6.67334 21.0193 8.98001 23.326 11.82 23.326H18.1867C21.0267 23.326 23.3333 21.0193 23.3333 18.1793V11.8127C23.3333 8.97268 21.0267 6.66602 18.1867 6.66602ZM21.4733 18.186C21.4733 19.9993 20 21.4793 18.18 21.4793H11.8133C10 21.4793 8.52001 20.006 8.52001 18.186V11.8193C8.52001 10.006 9.99334 8.52602 11.8133 8.52602H18.18C19.9933 8.52602 21.4733 9.99935 21.4733 11.8193V18.186Z" fill="#126FB4"/>
<path d="M15 10.7383C12.6533 10.7383 10.74 12.6516 10.74 14.9983C10.74 17.3449 12.6533 19.2583 15 19.2583C17.3467 19.2583 19.26 17.3449 19.26 14.9983C19.26 12.6516 17.3467 10.7383 15 10.7383ZM15 17.5849C13.5733 17.5849 12.4133 16.4249 12.4133 14.9983C12.4133 13.5716 13.5733 12.4116 15 12.4116C16.4267 12.4116 17.5867 13.5716 17.5867 14.9983C17.5867 16.4249 16.4267 17.5849 15 17.5849Z" fill="#126FB4"/>
<path d="M19.5845 11.2065C19.9769 11.1429 20.2435 10.7731 20.1799 10.3806C20.1163 9.98815 19.7465 9.72157 19.3541 9.78519C18.9616 9.84881 18.695 10.2186 18.7586 10.611C18.8223 11.0035 19.192 11.2701 19.5845 11.2065Z" fill="#126FB4"/>
</svg>
