<svg width="70" height="70" viewBox="0 0 70 70" fill="none" xmlns="http://www.w3.org/2000/svg">
<path d="M41.8571 30.2857H28.1428C27.5366 30.2857 26.9552 30.0449 26.5266 29.6162C26.0979 29.1876 25.8571 28.6062 25.8571 28V21.1429C25.8571 18.718 26.8204 16.3925 28.535 14.6779C30.2496 12.9633 32.5751 12 35 12C37.4248 12 39.7503 12.9633 41.4649 14.6779C43.1796 16.3925 44.1428 18.718 44.1428 21.1429V28C44.1428 28.6062 43.902 29.1876 43.4734 29.6162C43.0447 30.0449 42.4633 30.2857 41.8571 30.2857ZM30.4285 25.7143H39.5714V21.1429C39.5714 19.9304 39.0898 18.7677 38.2325 17.9104C37.3752 17.0531 36.2124 16.5714 35 16.5714C33.7876 16.5714 32.6248 17.0531 31.7675 17.9104C30.9102 18.7677 30.4285 19.9304 30.4285 21.1429V25.7143Z" fill="#D8E1EF"/>
<path d="M44.1429 25.7144H25.8571C22.07 25.7144 19 28.7844 19 32.5715V50.8572C19 54.6443 22.07 57.7144 25.8571 57.7144H44.1429C47.93 57.7144 51 54.6443 51 50.8572V32.5715C51 28.7844 47.93 25.7144 44.1429 25.7144Z" fill="#126FB4"/>
<path d="M39.5714 39.4285C39.5763 38.6249 39.3692 37.8342 38.971 37.1362C38.5729 36.4381 37.9978 35.8574 37.3037 35.4524C36.6095 35.0475 35.8209 34.8326 35.0173 34.8296C34.2137 34.8266 33.4235 35.0355 32.7263 35.4352C32.0292 35.8349 31.4497 36.4113 31.0463 37.1063C30.6429 37.8014 30.4299 38.5905 30.4287 39.3941C30.4274 40.1977 30.6381 40.9874 31.0393 41.6837C31.4406 42.3799 32.0183 42.9581 32.7143 43.3599V46.2857C32.7143 46.8919 32.9551 47.4732 33.3838 47.9019C33.8124 48.3306 34.3938 48.5714 35 48.5714C35.6062 48.5714 36.1876 48.3306 36.6162 47.9019C37.0449 47.4732 37.2857 46.8919 37.2857 46.2857V43.3599C37.9766 42.9611 38.5511 42.3883 38.9521 41.6986C39.3531 41.0089 39.5666 40.2263 39.5714 39.4285Z" fill="#D8E1EF"/>
</svg>
