<svg width="32" height="46" viewBox="0 0 32 46" fill="none" xmlns="http://www.w3.org/2000/svg">
<path d="M22.8571 18.2857H9.14283C8.53662 18.2857 7.95524 18.0449 7.52659 17.6162C7.09793 17.1876 6.85712 16.6062 6.85712 16V9.14286C6.85712 6.71802 7.82038 4.3925 9.535 2.67788C11.2496 0.963262 13.5751 0 16 0C18.4248 0 20.7503 0.963262 22.4649 2.67788C24.1796 4.3925 25.1428 6.71802 25.1428 9.14286V16C25.1428 16.6062 24.902 17.1876 24.4734 17.6162C24.0447 18.0449 23.4633 18.2857 22.8571 18.2857ZM11.4285 13.7143H20.5714V9.14286C20.5714 7.93044 20.0898 6.76768 19.2325 5.91037C18.3752 5.05306 17.2124 4.57143 16 4.57143C14.7876 4.57143 13.6248 5.05306 12.7675 5.91037C11.9102 6.76768 11.4285 7.93044 11.4285 9.14286V13.7143Z" fill="#D8E1EF"/>
<path d="M25.1429 13.7144H6.85714C3.07005 13.7144 0 16.7844 0 20.5715V38.8572C0 42.6443 3.07005 45.7144 6.85714 45.7144H25.1429C28.93 45.7144 32 42.6443 32 38.8572V20.5715C32 16.7844 28.93 13.7144 25.1429 13.7144Z" fill="#126FB4"/>
<path d="M20.5714 27.4285C20.5763 26.6249 20.3692 25.8342 19.971 25.1362C19.5729 24.4381 18.9978 23.8574 18.3037 23.4524C17.6095 23.0475 16.8209 22.8326 16.0173 22.8296C15.2137 22.8266 14.4235 23.0355 13.7263 23.4352C13.0292 23.8349 12.4497 24.4113 12.0463 25.1063C11.6429 25.8014 11.4299 26.5905 11.4287 27.3941C11.4274 28.1977 11.6381 28.9874 12.0393 29.6837C12.4406 30.3799 13.0183 30.9581 13.7143 31.3599V34.2857C13.7143 34.8919 13.9551 35.4732 14.3838 35.9019C14.8124 36.3306 15.3938 36.5714 16 36.5714C16.6062 36.5714 17.1876 36.3306 17.6162 35.9019C18.0449 35.4732 18.2857 34.8919 18.2857 34.2857V31.3599C18.9766 30.9611 19.5511 30.3883 19.9521 29.6986C20.3531 29.0089 20.5666 28.2263 20.5714 27.4285Z" fill="#D8E1EF"/>
</svg>
