<svg width="40" height="40" viewBox="0 0 40 40" fill="none" xmlns="http://www.w3.org/2000/svg">
<path d="M26.6416 31.4284L7.59497 20.0001L26.6416 8.57178L28.3583 11.4284L14.0716 20.0001L28.3583 28.5718L26.6416 31.4284Z" fill="#D8E1EF"/>
<path d="M28 15C30.7614 15 33 12.7614 33 10C33 7.23858 30.7614 5 28 5C25.2386 5 23 7.23858 23 10C23 12.7614 25.2386 15 28 15Z" fill="#126FB4"/>
<path d="M10 25C12.7614 25 15 22.7614 15 20C15 17.2386 12.7614 15 10 15C7.23858 15 5 17.2386 5 20C5 22.7614 7.23858 25 10 25Z" fill="#126FB4"/>
<path d="M28 35C30.7614 35 33 32.7614 33 30C33 27.2386 30.7614 25 28 25C25.2386 25 23 27.2386 23 30C23 32.7614 25.2386 35 28 35Z" fill="#126FB4"/>
</svg>
