<svg width="40" height="40" viewBox="0 0 40 40" fill="none" xmlns="http://www.w3.org/2000/svg">
<path d="M14.4178 31.4178C14.4178 34.5007 16.917 36.9999 20 36.9999C23.0829 36.9999 25.5819 34.5007 25.5819 31.4178V5.77148H14.4178V31.4178ZM16.0753 19.8897H23.9246V31.2183C23.9246 33.3858 22.1676 35.1429 20 35.1429C17.8325 35.1429 16.0754 33.3858 16.0754 31.2183V19.8897H16.0753Z" fill="#126FB4"/>
<path d="M25.8993 3H14.1008C13.4001 3 12.8321 3.56797 12.8321 4.2687V4.58583C12.8321 5.28656 13.4001 5.85453 14.1008 5.85453H14.4179H25.5821H25.8993C26.5999 5.85453 27.1679 5.28656 27.1679 4.58583V4.2687C27.1679 3.56797 26.6 3 25.8993 3Z" fill="#125282"/>
<path d="M20 35.1429C22.1675 35.1429 23.9246 33.3858 23.9246 31.2183V19.8896H16.0752V31.2183C16.0753 33.3858 17.8325 35.1429 20 35.1429Z" fill="#D8E1EF"/>
</svg>
