<svg width="20" height="21" viewBox="0 0 20 21" fill="none" xmlns="http://www.w3.org/2000/svg">
<path d="M0.960032 14.84L3.38003 12.4C3.78003 12 4.32003 11.76 4.82003 11.76C5.36003 11.76 5.84003 11.98 6.26003 12.4L7.66003 13.8C7.72003 13.76 7.80003 13.72 7.86003 13.7C7.86003 13.7 7.88003 13.7 7.88003 13.68L7.90003 13.66C8.08003 13.54 8.28003 13.42 8.52003 13.32C9.74003 12.56 10.88 11.5 12.04 10.08C12.58 9.40003 12.96 8.80003 13.26 8.14003C12.94 7.88003 12.7 7.62003 12.52 7.42003L11.9 6.80003C11.42 6.36003 11.18 5.86003 11.18 5.34003C11.18 4.80003 11.42 4.30003 11.88 3.82003L13.78 1.92003C13.96 1.74003 14.14 1.56003 14.34 1.38003C14.74 1.00003 15.24 0.780029 15.76 0.780029C16.34 0.780029 16.82 0.980029 17.26 1.42003L18.72 2.88003C19.3 3.42003 19.64 4.10003 19.72 4.94003V4.96003C19.76 6.00003 19.6 6.96003 19.16 8.16003C18.46 10.04 17.4 11.8 15.82 13.74C13.76 16.06 11.44 17.86 8.86003 19.1L8.80003 19.12C8.04003 19.46 6.60003 20.1 5.00003 20.2H4.78003C3.72003 20.2 2.92003 19.86 2.26003 19.14C2.02003 18.86 1.76003 18.6 1.54003 18.36C1.36003 18.22 1.24003 18.08 1.12003 17.94L0.960032 17.78L0.920031 17.74C0.0800323 16.82 0.0800304 15.7 0.960032 14.84ZM1.66003 17.06L1.86003 17.26L1.88003 17.3C1.98003 17.42 2.06003 17.52 2.16003 17.6L2.22003 17.66C2.46003 17.9 2.74003 18.18 3.02003 18.5C3.48003 19 4.00003 19.22 4.78003 19.22H4.94003C6.34003 19.12 7.62003 18.56 8.38003 18.22L8.42003 18.2C10.88 17.02 13.1 15.3 15.04 13.1C16.56 11.26 17.56 9.58003 18.22 7.82003C18.62 6.72003 18.76 5.92003 18.72 5.02003C18.66 4.44003 18.44 3.98003 18.04 3.62003L16.56 2.14003C16.32 1.90003 16.08 1.80003 15.78 1.80003C15.52 1.80003 15.28 1.92003 15.06 2.12003L15.04 2.14003C14.86 2.30003 14.68 2.48003 14.5 2.66003L12.6 4.56003C12.24 4.92003 12.18 5.20003 12.18 5.36003C12.18 5.52003 12.22 5.76003 12.6 6.10003L13.24 6.74003C13.46 6.98003 13.72 7.24003 14.06 7.52003L14.1 7.56003L14.14 7.62003C14.32 7.86003 14.34 8.08003 14.24 8.40003L14.22 8.48003L14.2 8.56003C13.86 9.30003 13.44 9.98003 12.84 10.74C11.6 12.26 10.36 13.4 9.04003 14.22L8.98003 14.26C8.82003 14.34 8.66003 14.42 8.52003 14.5C8.46003 14.56 8.38003 14.6 8.32003 14.62C8.24003 14.66 8.18003 14.68 8.14003 14.72L8.00003 14.82H7.96003L7.90003 14.84C7.78003 14.88 7.70003 14.88 7.64003 14.88C7.44003 14.88 7.26003 14.8 7.08003 14.62L5.58003 13.12C5.34003 12.88 5.12003 12.78 4.84003 12.78C4.54003 12.78 4.26003 12.96 4.10003 13.12L1.66003 15.56C1.18003 16.04 1.16003 16.54 1.66003 17.06Z" fill="#126FB4"/>
</svg>
