<svg width="40" height="40" viewBox="0 0 40 40" fill="none" xmlns="http://www.w3.org/2000/svg">
<path d="M36.72 27.8963C36.6438 27.8013 25.0813 18.7601 24.9788 18.6676C24.435 18.2413 23.65 18.3363 23.2238 18.8788C22.7975 19.4226 22.8925 20.2076 23.435 20.6338L34.9813 29.6976C35 29.7263 35.0113 29.7676 34.985 29.8301C34.9463 29.9238 34.88 29.9238 34.845 29.9238H30.4488L29.585 32.4238H34.8463C35.9225 32.4238 36.885 31.7813 37.2963 30.7863C37.7075 29.7926 37.4813 28.6576 36.72 27.8963Z" fill="#126FB4"/>
<path d="M16.3338 29.9238L15.4688 32.4238H24.5312L23.6663 29.9238H16.3338Z" fill="#126FB4"/>
<path d="M5.15502 29.9239C5.12002 29.9239 5.05252 29.9239 5.01502 29.8302C4.98127 29.7489 5.01002 29.7064 4.98627 29.7214L20.5225 16.6377C23.4775 16.3689 25.8075 13.9064 25.8075 10.8827C25.8075 7.6802 23.2025 5.0752 20 5.0752C16.7975 5.0752 14.1925 7.6802 14.1925 10.8827C14.1925 11.5727 14.7525 12.1327 15.4425 12.1327C16.1325 12.1327 16.6925 11.5727 16.6925 10.8827C16.6925 9.05895 18.1763 7.5752 20 7.5752C21.8238 7.5752 23.3075 9.05895 23.3075 10.8827C23.3075 12.7064 21.8238 14.1902 20 14.1902C19.7063 14.2189 19.4375 14.3202 19.195 14.4864L3.28002 27.8964C2.51877 28.6577 2.29252 29.7927 2.70502 30.7877C3.11752 31.7814 4.07877 32.4252 5.15502 32.4252H10.4163L9.55252 29.9252L5.15502 29.9239Z" fill="#126FB4"/>
<path d="M16.6238 29.0826C16.755 28.7001 16.695 28.2776 16.46 27.9488C16.225 27.6188 15.8463 27.4238 15.4425 27.4238H10.4425C10.0388 27.4238 9.65878 27.6188 9.42503 27.9488C9.19003 28.2776 9.13003 28.7001 9.26128 29.0826L9.55253 29.9238L10.4163 32.4238L10.99 34.0826C11.165 34.5863 11.6388 34.9238 12.1713 34.9238H13.7138C14.2463 34.9238 14.7213 34.5851 14.895 34.0826L15.4688 32.4238L16.3325 29.9238L16.6238 29.0826Z" fill="#D8E1EF"/>
<path d="M30.7388 29.0826C30.87 28.7001 30.81 28.2776 30.575 27.9488C30.34 27.6188 29.9613 27.4238 29.5575 27.4238H24.5575C24.1538 27.4238 23.7738 27.6188 23.54 27.9488C23.305 28.2776 23.245 28.7001 23.3763 29.0826L23.6675 29.9238L24.5313 32.4238L25.105 34.0826C25.28 34.5863 25.7538 34.9238 26.2863 34.9238H27.8288C28.3613 34.9238 28.8363 34.5851 29.01 34.0826L29.5838 32.4238L30.4475 29.9238L30.7388 29.0826Z" fill="#D8E1EF"/>
</svg>
