<svg width="20" height="21" viewBox="0 0 20 21" fill="none" xmlns="http://www.w3.org/2000/svg">
<path d="M8.06799 0.5C3.79079 0.5 0.322754 3.96806 0.322754 8.24524C0.322754 12.5224 3.79079 15.9905 8.06799 15.9905C9.71271 15.9905 11.2381 15.4774 12.4919 14.6036L18.3491 20.4599C18.4019 20.5128 18.4876 20.5128 18.5377 20.4635L19.6412 19.3601C19.6922 19.3091 19.6877 19.2216 19.6376 19.1714L13.8568 13.3908C15.0742 12.0231 15.8132 10.2207 15.8132 8.2452C15.8132 3.96806 12.3452 0.5 8.06799 0.5ZM8.06799 15.0793C4.29379 15.0793 1.23395 12.0194 1.23395 8.24524C1.23395 4.47104 4.29376 1.41123 8.06799 1.41123C11.8422 1.41123 14.902 4.47104 14.902 8.24524C14.902 12.0194 11.8422 15.0793 8.06799 15.0793Z" fill="#126FB4"/>
</svg>
