<svg width="40" height="40" viewBox="0 0 40 40" fill="none" xmlns="http://www.w3.org/2000/svg">
<rect x="8" y="8" width="22" height="19" fill="#D8E1EF"/>
<path fill-rule="evenodd" clip-rule="evenodd" d="M6.85156 3.99609V4.99219H7.54883H8.2461V6.45312V7.91406H9.24219H10.2383V6.45312V4.99219H10.9023H11.5664V3.99609V3H9.20899H6.85156V3.99609ZM26.4414 3.99609V4.99219H27.1387H27.8359V6.45312V7.91406H28.832H29.8281V6.45312V4.99219H30.5254H31.2227V3.99609V3H28.832H26.4414V3.99609ZM32.6016 10.0871L32.584 11.998L31.2043 12.016L29.8246 12.034L29.8429 13.0121L29.8613 13.9902L31.2393 14.0082L32.6172 14.0262V15.6517V17.2773H18.0403H3.46332L3.48072 19.917L3.49805 22.5566L5.97168 22.574L8.44531 22.5914V28.7996V35.0078H7.38281H6.32031V36.0039V37H11.1016H15.8828V36.0039V35.0078H14.7539H13.625V28.7988V22.5898H19.0039H24.3828V28.7988V35.0078H23.2871H22.1914V36.0039V37H26.9727H31.7539V36.0039V35.0078H30.6582H29.5625V28.7988V22.5898H31.0898H32.6172V26.8398V31.0898H33.6133H34.6094V25.877V20.6641H35.5723H36.5352V19.668V18.6719H35.5727H34.6102L34.5932 13.4424L34.5762 8.21289L33.5977 8.1945L32.6192 8.17617L32.6016 10.0871ZM4.46094 13.0273V14.0234H6.32031H8.17969V13.0273V12.0312H6.32031H4.46094V13.0273Z" fill="#126FB4"/>
</svg>
