<svg width="54" height="52" viewBox="0 0 54 52" fill="none" xmlns="http://www.w3.org/2000/svg">
<path d="M27 51.0624C21.2744 51.1017 15.7672 48.8673 11.6875 44.8499C11.4597 44.6245 11.2843 44.3518 11.1736 44.0512C11.0628 43.7505 11.0195 43.4292 11.0466 43.1099C11.0737 42.7907 11.1707 42.4813 11.3305 42.2036C11.4904 41.9259 11.7093 41.6868 11.9718 41.503C12.7237 40.9686 13.2875 40.2103 13.5825 39.3363C13.8776 38.4623 13.8888 37.5174 13.6146 36.6366C13.3404 35.7558 12.7949 34.9843 12.0559 34.4321C11.3169 33.88 10.4223 33.5756 9.49997 33.5624C9.062 33.5585 8.62624 33.625 8.20935 33.7593C7.90788 33.8659 7.58671 33.9051 7.26846 33.8741C6.9502 33.8432 6.6426 33.7428 6.36731 33.5802C6.09203 33.4175 5.85575 33.1965 5.67512 32.9326C5.49449 32.6688 5.3739 32.3685 5.32185 32.053C5.18413 31.1041 5.11831 30.1462 5.12497 29.1874C5.12351 24.6415 6.53834 20.208 9.17282 16.5033C11.8073 12.7985 15.5305 10.0066 19.825 8.51553C20.1271 8.41227 20.4481 8.37639 20.7655 8.4104C21.083 8.44441 21.3891 8.54749 21.6625 8.7124C21.9391 8.87501 22.1765 9.09648 22.358 9.3611C22.5394 9.62573 22.6605 9.92703 22.7125 10.2437C22.9133 11.2327 23.4499 12.1218 24.2312 12.7605C25.0126 13.3991 25.9908 13.748 27 13.748C28.0092 13.748 28.9873 13.3991 29.7687 12.7605C30.5501 12.1218 31.0866 11.2327 31.2875 10.2437C31.3395 9.92703 31.4605 9.62573 31.642 9.3611C31.8234 9.09648 32.0609 8.87501 32.3375 8.7124C32.6108 8.54749 32.917 8.44441 33.2344 8.4104C33.5518 8.37639 33.8729 8.41227 34.175 8.51553C38.4694 10.0066 42.1926 12.7985 44.8271 16.5033C47.4616 20.208 48.8764 24.6415 48.875 29.1874C48.8825 30.1462 48.8167 31.1042 48.6781 32.053C48.626 32.3685 48.5054 32.6688 48.3248 32.9326C48.1442 33.1965 47.9079 33.4175 47.6326 33.5802C47.3573 33.7428 47.0497 33.8432 46.7315 33.8741C46.4132 33.9051 46.0921 33.8659 45.7906 33.7593C45.3737 33.625 44.9379 33.5585 44.5 33.5624C43.572 33.5619 42.668 33.8565 41.9184 34.4035C41.1689 34.9506 40.6127 35.7218 40.3302 36.6057C40.0478 37.4896 40.0537 38.4404 40.3471 39.3207C40.6405 40.2011 41.2062 40.9653 41.9625 41.503C42.2296 41.6815 42.4541 41.9166 42.62 42.1916C42.786 42.4667 42.8894 42.7749 42.9228 43.0943C42.9562 43.4138 42.9188 43.7367 42.8133 44.0402C42.7079 44.3436 42.5369 44.62 42.3125 44.8499C38.2327 48.8673 32.7256 51.1017 27 51.0624V51.0624ZM16.5 43.1874C19.5292 45.4593 23.2135 46.6874 27 46.6874C30.7864 46.6874 34.4708 45.4593 37.5 43.1874C36.525 41.8874 35.9313 40.3416 35.7853 38.7232C35.6394 37.1048 35.947 35.4777 36.6737 34.0243C37.4004 32.5709 38.5175 31.3485 39.8998 30.4942C41.2821 29.6399 42.875 29.1874 44.5 29.1874C44.5003 25.9256 43.589 22.7287 41.869 19.9573C40.149 17.186 37.6886 14.9504 34.7656 13.503C34.0272 14.9251 32.9126 16.1171 31.5432 16.949C30.1738 17.781 28.6023 18.221 27 18.221C25.3977 18.221 23.8261 17.781 22.4567 16.949C21.0874 16.1171 19.9727 14.9251 19.2343 13.503C16.3113 14.9504 13.851 17.186 12.1309 19.9573C10.4109 22.7287 9.49965 25.9256 9.49997 29.1874C11.1249 29.1874 12.7178 29.6399 14.1001 30.4942C15.4824 31.3485 16.5995 32.5709 17.3262 34.0243C18.0529 35.4777 18.3605 37.1048 18.2146 38.7232C18.0687 40.3416 17.475 41.8874 16.5 43.1874Z" fill="#D8E1EF"/>
<path d="M27 0.75C24.6793 0.75 22.4537 1.67187 20.8128 3.31282C19.1718 4.95376 18.25 7.17936 18.25 9.5C18.2413 9.98458 18.2853 10.4687 18.3812 10.9437C18.7399 12.9502 19.7879 14.7685 21.3441 16.0848C22.9004 17.401 24.8674 18.1327 26.9056 18.1534C28.9438 18.1742 30.9252 17.4827 32.508 16.1984C34.0908 14.9141 35.1755 13.1175 35.575 11.1187C35.6979 10.5881 35.7566 10.0446 35.75 9.5C35.75 7.17936 34.8281 4.95376 33.1871 3.31282C31.5462 1.67187 29.3206 0.75 27 0.75Z" fill="#126FB4"/>
<path d="M47.2344 29.6469C46.3554 29.3406 45.4309 29.1852 44.5 29.1875C42.7694 29.1875 41.0777 29.7007 39.6388 30.6622C38.1998 31.6236 37.0783 32.9902 36.4161 34.589C35.7538 36.1879 35.5805 37.9472 35.9181 39.6446C36.2558 41.3419 37.0891 42.901 38.3128 44.1247C39.5365 45.3484 41.0956 46.1818 42.793 46.5194C44.4903 46.857 46.2496 46.6837 47.8485 46.0215C49.4473 45.3592 50.8139 44.2377 51.7754 42.7988C52.7368 41.3598 53.25 39.6681 53.25 37.9375C53.2456 36.0988 52.662 34.3082 51.5821 32.82C50.5023 31.3317 48.981 30.2215 47.2344 29.6469Z" fill="#126FB4"/>
<path d="M9.49995 29.1875C8.59219 29.1834 7.69016 29.3313 6.8312 29.625C4.73817 30.3131 2.98178 31.7656 1.91286 33.6921C0.84394 35.6187 0.541174 37.8777 1.06504 40.0177C1.5889 42.1578 2.90083 44.0215 4.73878 45.2365C6.57674 46.4515 8.8054 46.9284 10.9796 46.572C13.1539 46.2156 15.1136 45.052 16.4674 43.3138C17.8212 41.5755 18.4694 39.3905 18.2826 37.1952C18.0957 34.9999 17.0876 32.9558 15.4595 31.4714C13.8313 29.9869 11.7031 29.1713 9.49995 29.1875V29.1875Z" fill="#126FB4"/>
</svg>
