<svg width="70" height="70" viewBox="0 0 70 70" fill="none" xmlns="http://www.w3.org/2000/svg">
<path d="M35 59.0624C29.2744 59.1017 23.7672 56.8673 19.6875 52.8499C19.4597 52.6245 19.2843 52.3518 19.1736 52.0512C19.0628 51.7505 19.0195 51.4292 19.0466 51.1099C19.0737 50.7907 19.1707 50.4813 19.3305 50.2036C19.4904 49.9259 19.7093 49.6868 19.9718 49.503C20.7237 48.9686 21.2875 48.2103 21.5825 47.3363C21.8776 46.4622 21.8888 45.5174 21.6146 44.6366C21.3404 43.7558 20.7949 42.9843 20.0559 42.4321C19.3169 41.88 18.4223 41.5756 17.5 41.5624C17.062 41.5585 16.6262 41.625 16.2093 41.7593C15.9079 41.8659 15.5867 41.9051 15.2685 41.8741C14.9502 41.8432 14.6426 41.7428 14.3673 41.5802C14.092 41.4175 13.8558 41.1965 13.6751 40.9326C13.4945 40.6688 13.3739 40.3685 13.3218 40.053C13.1841 39.1041 13.1183 38.1462 13.125 37.1874C13.1235 32.6415 14.5383 28.208 17.1728 24.5033C19.8073 20.7985 23.5305 18.0066 27.825 16.5155C28.1271 16.4123 28.4481 16.3764 28.7655 16.4104C29.083 16.4444 29.3891 16.5475 29.6625 16.7124C29.9391 16.875 30.1765 17.0965 30.358 17.3611C30.5394 17.6257 30.6605 17.927 30.7125 18.2437C30.9133 19.2327 31.4499 20.1218 32.2312 20.7605C33.0126 21.3991 33.9908 21.748 35 21.748C36.0092 21.748 36.9873 21.3991 37.7687 20.7605C38.5501 20.1218 39.0866 19.2327 39.2875 18.2437C39.3395 17.927 39.4605 17.6257 39.642 17.3611C39.8234 17.0965 40.0609 16.875 40.3375 16.7124C40.6108 16.5475 40.917 16.4444 41.2344 16.4104C41.5518 16.3764 41.8729 16.4123 42.175 16.5155C46.4694 18.0066 50.1926 20.7985 52.8271 24.5033C55.4616 28.208 56.8764 32.6415 56.875 37.1874C56.8825 38.1462 56.8167 39.1042 56.6781 40.053C56.626 40.3685 56.5055 40.6688 56.3248 40.9326C56.1442 41.1965 55.9079 41.4175 55.6326 41.5802C55.3573 41.7428 55.0497 41.8432 54.7315 41.8741C54.4132 41.9051 54.0921 41.8659 53.7906 41.7593C53.3737 41.625 52.9379 41.5585 52.5 41.5624C51.572 41.5619 50.668 41.8565 49.9184 42.4035C49.1689 42.9506 48.6127 43.7218 48.3302 44.6057C48.0478 45.4896 48.0537 46.4404 48.3471 47.3207C48.6405 48.2011 49.2062 48.9653 49.9625 49.503C50.2296 49.6815 50.4541 49.9166 50.62 50.1916C50.786 50.4667 50.8894 50.7749 50.9228 51.0943C50.9562 51.4138 50.9188 51.7367 50.8134 52.0402C50.7079 52.3436 50.5369 52.62 50.3125 52.8499C46.2327 56.8673 40.7256 59.1017 35 59.0624ZM24.5 51.1874C27.5292 53.4593 31.2135 54.6874 35 54.6874C38.7864 54.6874 42.4708 53.4593 45.5 51.1874C44.525 49.8874 43.9313 48.3416 43.7853 46.7232C43.6394 45.1048 43.947 43.4777 44.6737 42.0243C45.4004 40.5709 46.5175 39.3485 47.8998 38.4942C49.2821 37.6399 50.875 37.1874 52.5 37.1874C52.5003 33.9256 51.589 30.7287 49.869 27.9573C48.149 25.186 45.6886 22.9504 42.7656 21.503C42.0272 22.9251 40.9126 24.1171 39.5432 24.949C38.1738 25.781 36.6023 26.221 35 26.221C33.3977 26.221 31.8261 25.781 30.4567 24.949C29.0874 24.1171 27.9727 22.9251 27.2343 21.503C24.3113 22.9504 21.851 25.186 20.1309 27.9573C18.4109 30.7287 17.4996 33.9256 17.5 37.1874C19.1249 37.1874 20.7178 37.6399 22.1001 38.4942C23.4824 39.3485 24.5995 40.5709 25.3262 42.0243C26.0529 43.4777 26.3605 45.1048 26.2146 46.7232C26.0687 48.3416 25.475 49.8874 24.5 51.1874Z" fill="#D8E1EF"/>
<path d="M35 8.75C32.6793 8.75 30.4537 9.67187 28.8128 11.3128C27.1718 12.9538 26.25 15.1794 26.25 17.5C26.2413 17.9846 26.2853 18.4687 26.3812 18.9437C26.7399 20.9502 27.7879 22.7685 29.3441 24.0848C30.9004 25.401 32.8674 26.1327 34.9056 26.1534C36.9438 26.1742 38.9252 25.4827 40.508 24.1984C42.0908 22.9141 43.1755 21.1175 43.575 19.1187C43.6979 18.5881 43.7566 18.0446 43.75 17.5C43.75 15.1794 42.8281 12.9538 41.1871 11.3128C39.5462 9.67187 37.3206 8.75 35 8.75Z" fill="#126FB4"/>
<path d="M55.2344 37.6469C54.3554 37.3406 53.4309 37.1852 52.5 37.1875C50.7694 37.1875 49.0777 37.7007 47.6388 38.6622C46.1998 39.6236 45.0783 40.9902 44.4161 42.589C43.7538 44.1879 43.5805 45.9472 43.9181 47.6446C44.2558 49.3419 45.0891 50.901 46.3128 52.1247C47.5365 53.3484 49.0956 54.1818 50.793 54.5194C52.4903 54.857 54.2496 54.6837 55.8485 54.0215C57.4473 53.3592 58.8139 52.2377 59.7754 50.7988C60.7368 49.3598 61.25 47.6681 61.25 45.9375C61.2456 44.0988 60.662 42.3082 59.5821 40.82C58.5023 39.3317 56.981 38.2215 55.2344 37.6469Z" fill="#126FB4"/>
<path d="M17.5 37.1875C16.5922 37.1834 15.6902 37.3313 14.8312 37.625C12.7382 38.3131 10.9818 39.7656 9.91286 41.6921C8.84394 43.6187 8.54117 45.8777 9.06504 48.0177C9.5889 50.1578 10.9008 52.0215 12.7388 53.2365C14.5767 54.4515 16.8054 54.9284 18.9796 54.572C21.1539 54.2156 23.1136 53.052 24.4674 51.3138C25.8212 49.5755 26.4694 47.3905 26.2826 45.1952C26.0957 42.9999 25.0876 40.9558 23.4595 39.4714C21.8313 37.9869 19.7031 37.1713 17.5 37.1875Z" fill="#126FB4"/>
</svg>
