<svg width="70" height="70" viewBox="0 0 70 70" fill="none" xmlns="http://www.w3.org/2000/svg">
<path d="M55.3077 18.0771C40.94 18.0771 36.4215 12.0863 36.3877 12.0356C36.2322 11.8114 36.0248 11.6282 35.7831 11.5014C35.5415 11.3747 35.2728 11.3083 35 11.3079C34.7287 11.3064 34.4609 11.3702 34.2194 11.4939C33.9779 11.6176 33.7697 11.7976 33.6123 12.0187C33.6123 12.0187 29.06 18.0771 14.6923 18.0771C14.2435 18.0771 13.813 18.2554 13.4957 18.5728C13.1783 18.8902 13 19.3206 13 19.7694V34.594C13 50.2479 25.0323 54.9017 32.2077 57.711L34.3569 58.5571C34.5595 58.6467 34.7785 58.6929 35 58.6929C35.2215 58.6929 35.4405 58.6467 35.6431 58.5571L37.7923 57.711C44.9677 54.9187 57 50.231 57 34.594V19.7694C57 19.3206 56.8217 18.8902 56.5043 18.5728C56.187 18.2554 55.7565 18.0771 55.3077 18.0771Z" fill="#D8E1EF"/>
<path d="M57 19.7694V34.594C57 50.2479 44.9677 54.9017 37.7923 57.7109L35.6431 58.5571C35.4396 58.6438 35.2211 58.6898 35 58.6925V11.3079C35.27 11.311 35.5353 11.3787 35.7737 11.5053C36.0122 11.6319 36.2169 11.8137 36.3708 12.0356C36.3708 12.0356 40.94 18.0771 55.3077 18.0771C55.7565 18.0771 56.187 18.2554 56.5043 18.5728C56.8217 18.8901 57 19.3206 57 19.7694Z" fill="#126FB4"/>
</svg>
