<svg width="44" height="48" viewBox="0 0 44 48" fill="none" xmlns="http://www.w3.org/2000/svg">
<path d="M42.3077 7.07712C27.94 7.07712 23.4215 1.08635 23.3877 1.03558C23.2322 0.811405 23.0248 0.628157 22.7831 0.50145C22.5415 0.374743 22.2728 0.308335 22 0.307886V0.307886C21.7287 0.306428 21.4609 0.37024 21.2194 0.493942C20.9779 0.617643 20.7697 0.797607 20.6123 1.01866C20.6123 1.01866 16.06 7.07712 1.69231 7.07712C1.24348 7.07712 0.813035 7.25541 0.495665 7.57278C0.178296 7.89015 0 8.3206 0 8.76942V23.594C0 39.2479 12.0323 43.9017 19.2077 46.711L21.3569 47.5571C21.5595 47.6467 21.7785 47.6929 22 47.6929C22.2215 47.6929 22.4405 47.6467 22.6431 47.5571L24.7923 46.711C31.9677 43.9187 44 39.231 44 23.594V8.76942C44 8.3206 43.8217 7.89015 43.5043 7.57278C43.187 7.25541 42.7565 7.07712 42.3077 7.07712Z" fill="#D8E1EF"/>
<path d="M44 8.7694V23.594C44 39.2479 31.9677 43.9017 24.7923 46.7109L22.6431 47.5571C22.4396 47.6438 22.2211 47.6898 22 47.6925V0.307861C22.27 0.311018 22.5353 0.378719 22.7737 0.505311C23.0122 0.631903 23.2169 0.813711 23.3708 1.03555C23.3708 1.03555 27.94 7.07709 42.3077 7.07709C42.7565 7.07709 43.187 7.25539 43.5043 7.57276C43.8217 7.89013 44 8.32057 44 8.7694Z" fill="#126FB4"/>
</svg>
