<svg xmlns="http://www.w3.org/2000/svg">

  <symbol id="arrow-down" width="8" height="14" viewBox="0 0 8 14" fill="none">
    <path
      d="M4.35355 13.3536C4.15829 13.5488 3.84171 13.5488 3.64645 13.3536L0.464466 10.1716C0.269204 9.97631 0.269204 9.65973 0.464466 9.46447C0.659728 9.2692 0.976311 9.2692 1.17157 9.46447L4 12.2929L6.82843 9.46447C7.02369 9.2692 7.34027 9.2692 7.53553 9.46447C7.7308 9.65973 7.7308 9.97631 7.53553 10.1716L4.35355 13.3536ZM4.5 0L4.5 13H3.5L3.5 0L4.5 0Z"
      fill="#262E34" />
  </symbol>

  <symbol id="arrow-next" width="43" height="42" viewBox="0 0 43 42" fill="none">
    <path
      d="M27.8536 21.3536C28.0488 21.1583 28.0488 20.8417 27.8536 20.6464L24.6716 17.4645C24.4763 17.2692 24.1597 17.2692 23.9645 17.4645C23.7692 17.6597 23.7692 17.9763 23.9645 18.1716L26.7929 21L23.9645 23.8284C23.7692 24.0237 23.7692 24.3403 23.9645 24.5355C24.1597 24.7308 24.4763 24.7308 24.6716 24.5355L27.8536 21.3536ZM15.5 21.5H27.5V20.5H15.5V21.5Z"
      fill="#126FB4" />
  </symbol>

  <symbol id="arrow-prev" width="43" height="42" viewBox="0 0 43 42" fill="none">
    <path
      d="M15.1464 21.3536C14.9512 21.1583 14.9512 20.8417 15.1464 20.6464L18.3284 17.4645C18.5237 17.2692 18.8403 17.2692 19.0355 17.4645C19.2308 17.6597 19.2308 17.9763 19.0355 18.1716L16.2071 21L19.0355 23.8284C19.2308 24.0237 19.2308 24.3403 19.0355 24.5355C18.8403 24.7308 18.5237 24.7308 18.3284 24.5355L15.1464 21.3536ZM27.5 21.5H15.5V20.5H27.5V21.5Z"
      fill="#126FB4" />
  </symbol>

</svg>