<svg width="30" height="30" viewBox="0 0 30 30" fill="none" xmlns="http://www.w3.org/2000/svg">
<path d="M22.4733 8.12363C20.0987 9.04925 9.91677 13.0185 7.1035 14.1003C5.21679 14.7933 6.32129 15.443 6.32129 15.443C6.32129 15.443 7.93183 15.9626 9.31251 16.3524C10.693 16.7422 11.4293 16.3092 11.4293 16.3092L17.9177 12.1948C20.2186 10.7223 19.6664 11.9349 19.1141 12.4547C17.9177 13.5809 15.9389 15.3563 14.2823 16.7856C13.546 17.3919 13.9141 17.9116 14.2364 18.1715C15.4327 19.1244 18.7001 21.0733 18.884 21.2032C19.8561 21.8509 21.7683 22.7832 22.0592 20.8134L23.2096 14.0139C23.5778 11.7186 23.9459 9.59633 23.9918 8.99003C24.13 7.51734 22.4733 8.12363 22.4733 8.12363Z" fill="#26A5E4"/>
</svg>
