<svg width="30" height="30" viewBox="0 0 30 30" fill="none" xmlns="http://www.w3.org/2000/svg">
<path d="M15.6126 11.6949C15.8062 11.6883 15.999 11.7216 16.1792 11.7927C16.3594 11.8638 16.5231 11.9712 16.6601 12.1081C16.7971 12.2451 16.9044 12.4088 16.9755 12.589C17.0466 12.7692 17.0799 12.962 17.0733 13.1556M15.2827 10.4227C15.6909 10.4222 16.095 10.5046 16.4704 10.665C16.8458 10.8253 17.1848 11.0601 17.4667 11.3553C17.7487 11.6505 17.9678 11.9998 18.1108 12.3822C18.2537 12.7646 18.3176 13.172 18.2984 13.5797M14.8586 9.19752C15.4955 9.18272 16.1285 9.30121 16.7169 9.54542C17.3053 9.78962 17.8362 10.1541 18.2754 10.6156C18.7147 11.077 19.0526 11.6252 19.2676 12.2249C19.4825 12.8246 19.5697 13.4626 19.5236 14.098" stroke="#735FF2" stroke-width="0.585938" stroke-linecap="round"/>
<path d="M16.5079 15.8413C16.822 15.433 17.199 15.3701 17.6387 15.6529L19.3351 16.9251C19.5864 17.2393 19.4764 17.679 19.0052 18.2445C18.534 18.8099 18.0942 19.0455 17.6859 18.9513C16.0209 18.5743 14.4188 17.6319 12.8796 16.1241C11.3403 14.6162 10.3822 12.9827 10.0052 11.2235C10.0052 10.5953 10.3979 10.0612 11.1832 9.62145C11.5916 9.33873 11.9372 9.41726 12.2199 9.85705L13.3979 11.5063C13.5864 11.8832 13.4764 12.2288 13.0681 12.5429C11.2304 13.2497 15.4712 17.8204 16.5079 15.8413ZM7.41361 13.8623C7.41361 17.5377 8.0733 18.3387 9.10995 19.4225C9.43979 19.7523 10.6178 20.3178 10.9005 20.3178V23.5691C10.9005 23.7576 11.089 23.8989 11.2775 23.7105L13.7749 20.7419L15 20.789C21.7853 20.789 22.5864 18.1502 22.5864 13.8623C22.5864 9.57433 21.7853 6.93559 15 6.93559C8.21466 6.93559 7.41361 9.57433 7.41361 13.8623ZM6 13.8623C6 7.92511 8.59162 5.52197 15 5.52197C21.4084 5.52197 24 7.92511 24 13.8623C24 19.7995 21.4084 22.2026 15 22.2026C14.5288 22.2026 14.1518 22.2026 13.4921 22.1084L11.7016 24.1345C11.3717 24.5115 10.3822 24.6529 10.3822 23.522V21.5429C10.0995 21.5429 9.43979 21.2602 8.5445 20.6947C7.64921 20.0822 6 18.6215 6 13.8623Z" fill="#735FF2"/>
</svg>
