<svg width="30" height="30" viewBox="0 0 30 30" fill="none" xmlns="http://www.w3.org/2000/svg">
<path d="M6.32574 24.0233C6.57164 23.2856 6.80327 22.5942 7.03491 21.9029C7.26655 21.2187 7.47324 20.5238 7.73695 19.8502C7.87237 19.5081 7.8296 19.2515 7.65855 18.9308C6.72487 17.1989 6.44691 15.3422 6.7712 13.4107C7.0456 11.775 7.74051 10.3282 8.86306 9.09873C10.7126 7.07815 13.0218 6.10884 15.7516 6.22287C17.7508 6.30484 19.5183 7.03539 21.0258 8.3575C22.4298 9.58695 23.3457 11.1158 23.7698 12.9332C24.1119 14.3979 24.0727 15.8554 23.6522 17.2987C23.1176 19.1268 22.0949 20.6342 20.5732 21.7817C18.4599 23.3782 16.0901 23.8736 13.5065 23.3711C12.7296 23.2214 11.9884 22.9435 11.2899 22.5657C11.1759 22.5052 11.0796 22.4909 10.9549 22.5337C9.62924 22.9613 8.3 23.3854 6.97433 23.8094C6.77476 23.8736 6.57164 23.9413 6.32574 24.0233ZM8.58153 21.7889C8.6528 21.771 8.68488 21.7639 8.71695 21.7532C9.54728 21.4895 10.3776 21.2222 11.2115 20.9657C11.2899 20.9407 11.3968 20.9621 11.4716 20.9977C11.8316 21.1759 12.1772 21.3897 12.5479 21.5465C14.0731 22.1916 15.6447 22.2949 17.2341 21.853C19.1299 21.322 20.5839 20.1924 21.5781 18.4854C22.4298 17.0243 22.7221 15.4456 22.4584 13.7849C22.1234 11.6717 21.04 10.011 19.2475 8.83146C17.6938 7.81226 15.9832 7.46659 14.1586 7.75524C12.5871 8.0047 11.2436 8.72099 10.1353 9.86848C9.18378 10.852 8.54589 12.0138 8.26793 13.3502C7.87237 15.2638 8.16458 17.0742 9.22655 18.7241C9.44037 19.0555 9.43324 19.3086 9.30495 19.6471C9.0448 20.342 8.82742 21.0512 8.58153 21.7889Z" fill="#4AAE20"/>
<path d="M19.8141 17.3911C19.8035 18.0789 19.4792 18.6028 18.8235 18.9306C18.1784 19.2513 17.5227 19.3333 16.8492 19.0696C16.2434 18.8308 15.6304 18.5992 15.046 18.3105C14.2763 17.9292 13.6455 17.359 13.0682 16.7283C12.4303 16.0298 11.8886 15.2529 11.4432 14.4226C11.126 13.8346 10.9336 13.211 11.0013 12.5267C11.0725 11.7998 11.4111 11.2189 11.9813 10.7806C12.0953 10.695 12.2664 10.6558 12.4125 10.6416C12.6013 10.6273 12.7902 10.6558 12.9791 10.6701C13.1359 10.6843 13.2214 10.7948 13.2749 10.9231C13.4138 11.2652 13.5386 11.6073 13.6704 11.953C13.7595 12.1846 13.8272 12.427 13.9341 12.6515C14.066 12.9294 13.984 13.1611 13.813 13.3749C13.6669 13.5566 13.5136 13.7313 13.3461 13.8881C13.2072 14.0199 13.1822 14.1553 13.2749 14.3157C13.6847 15.0462 14.1836 15.702 14.8429 16.2329C15.2776 16.5822 15.7587 16.8423 16.2576 17.0846C16.4037 17.1559 16.5463 17.1452 16.6603 17.0134C16.9062 16.7318 17.1557 16.4539 17.398 16.1688C17.5548 15.987 17.6332 15.9514 17.8435 16.0583C18.4528 16.3648 19.0551 16.682 19.6609 16.9991C19.8035 17.0775 19.8391 17.2058 19.8141 17.3911Z" fill="#4AAE20"/>
</svg>
