<svg width="70" height="56" viewBox="0 0 70 56" fill="none" xmlns="http://www.w3.org/2000/svg">
<path fill-rule="evenodd" clip-rule="evenodd" d="M27.2586 1.0555C26.848 1.63025 24.7104 4.48651 22.5083 7.40329C20.3059 10.3198 17.7002 13.7826 16.7176 15.0984L14.9312 17.4906L16.2858 19.2525C17.0308 20.2218 17.7408 20.961 17.8634 20.8951C17.9861 20.8292 18.0508 20.8974 18.0074 21.0465C17.9639 21.1954 19.0942 22.8186 20.5193 24.654C28.5247 34.9631 32.6327 40.7437 34.1064 43.7742C35.081 45.7788 35.1927 46.2395 35.1941 48.2598C35.1961 51.0621 34.6552 52.1657 32.1816 54.4047L30.4188 56H50.3169C66.1612 56 70.1702 55.9282 69.9945 55.6482C69.5405 54.9234 68.5214 53.5257 66.4552 50.793C65.2846 49.2449 63.6154 47.0284 62.7459 45.8674C60.9212 43.4311 60.2335 42.5183 55.7472 36.5792C53.9349 34.1798 50.4603 29.5568 48.0262 26.3059C43.8785 20.7662 42.1761 18.5027 34.6917 8.57388C33.0582 6.40663 30.9598 3.58837 30.0284 2.31138C29.0974 1.03439 28.261 -0.00588561 28.1701 2.50635e-05C28.0791 0.00593574 27.6688 0.48076 27.2586 1.0555ZM10.9249 22.3232C3.22513 31.8515 0.85979 35.7416 0.184965 39.9866C-0.0951564 41.7468 -0.0698217 42.4392 0.348489 44.4607C0.976964 47.4993 1.90888 49.1844 4.25321 51.5236C8.14928 55.4109 13.4198 56.6924 18.5659 55.0036C24.6713 52.9999 28.4364 48.0119 28.4364 41.927C28.4364 37.9221 26.61 34.0174 21.919 27.9947C20.5927 26.2918 18.375 23.4195 16.9905 21.612C15.606 19.8042 14.4087 18.3169 14.3295 18.3065C14.2504 18.2964 12.7182 20.1039 10.9249 22.3232ZM14.6183 23.2968C14.6191 28.4098 15.0268 31.8611 15.9535 34.609C17.6708 39.6992 20.3773 41.6542 26.2078 42.0168C27.1198 42.0733 27.9334 42.1856 28.0157 42.2661C28.0981 42.3469 27.087 42.5487 25.7687 42.7151C19.6288 43.4899 16.1433 46.3349 15.0271 51.4823C14.8074 52.4964 14.6252 53.8012 14.6223 54.3816C14.6189 55.13 14.4919 55.4371 14.1856 55.4371C13.8545 55.4371 13.7537 55.0791 13.7537 53.9028C13.7537 50.3356 12.5955 47.5173 10.301 45.5004C8.48468 43.9039 6.46827 43.1443 3.03973 42.7646C-0.77574 42.3418 -0.736586 42.0578 3.16496 41.8498C10.6413 41.4507 14.1473 35.3588 14.0402 22.9531C14.0028 18.6223 13.991 18.7833 14.3295 18.9879C14.5002 19.0912 14.6177 20.8447 14.6183 23.2968Z" fill="#126FB4"/>
</svg>
